<svg width="188" height="81" viewBox="0 0 188 81" fill="none" xmlns="http://www.w3.org/2000/svg">
<g filter="url(#filter0_d_86_235)">
<rect x="5" y="5" width="180" height="73" rx="22" fill="#353452" shape-rendering="crispEdges"/>
<path d="M39 51.5V41.5H45V51.5M33 38.5L42 31.5L51 38.5V49.5C51 50.0304 50.7893 50.5391 50.4142 50.9142C50.0391 51.2893 49.5304 51.5 49 51.5H35C34.4696 51.5 33.9609 51.2893 33.5858 50.9142C33.2107 50.5391 33 50.0304 33 49.5V38.5Z" stroke="#6A80CD" stroke-width="2" stroke-linecap="round" stroke-linejoin="round"/>
<path d="M65.0527 36.4502H69.2637C70.8906 36.4502 72.1758 36.8968 73.1191 37.79C74.0671 38.6787 74.541 39.8294 74.541 41.2422C74.541 42.7233 74.0602 43.8877 73.0986 44.7354C72.1416 45.5785 70.7744 46 68.9971 46H65.0527V36.4502ZM67.4316 38.2002V44.25H68.9834C69.9906 44.25 70.7607 43.9743 71.2939 43.4229C71.8271 42.8669 72.0938 42.1354 72.0938 41.2285C72.0938 40.2897 71.8226 39.5514 71.2803 39.0137C70.7425 38.4714 69.9678 38.2002 68.9561 38.2002H67.4316ZM82.6553 44.4072V45.5352C81.9808 45.9271 81.3473 46.123 80.7549 46.123C80.1169 46.123 79.7386 45.8815 79.6201 45.3984C78.9137 45.8815 78.2051 46.123 77.4941 46.123C76.9928 46.123 76.5667 45.9658 76.2158 45.6514C75.8649 45.3324 75.6895 44.9632 75.6895 44.5439C75.6895 43.9834 75.8695 43.5322 76.2295 43.1904C76.5941 42.8441 77.6924 42.3997 79.5244 41.8574C79.57 41.1374 79.1963 40.7773 78.4033 40.7773C77.542 40.7773 76.749 41.1374 76.0244 41.8574V40.2031C76.8721 39.679 77.804 39.417 78.8203 39.417C80.6432 39.417 81.5547 40.071 81.5547 41.3789V44.3184C81.5547 44.6191 81.6663 44.7695 81.8896 44.7695C82.0583 44.7695 82.3135 44.6488 82.6553 44.4072ZM79.5244 44.4346V42.876C78.8454 43.113 78.3783 43.3271 78.123 43.5186C77.8724 43.7054 77.7471 43.9447 77.7471 44.2363C77.7471 44.4232 77.8109 44.585 77.9385 44.7217C78.0661 44.8538 78.221 44.9199 78.4033 44.9199C78.7861 44.9199 79.1598 44.7581 79.5244 44.4346ZM87.9395 39.8955V41.3379C87.1647 40.8639 86.4469 40.627 85.7861 40.627C85.2985 40.627 85.0547 40.7933 85.0547 41.126C85.0547 41.2126 85.1048 41.2992 85.2051 41.3857C85.3099 41.4678 85.7041 41.6455 86.3877 41.9189C87.0713 42.1878 87.5544 42.5 87.8369 42.8555C88.1195 43.2109 88.2607 43.6006 88.2607 44.0244C88.2607 44.6943 88.0329 45.2116 87.5771 45.5762C87.1214 45.9408 86.472 46.123 85.6289 46.123C84.763 46.123 83.9928 45.9658 83.3184 45.6514V44.2227C84.1478 44.5872 84.8428 44.7695 85.4033 44.7695C86.0596 44.7695 86.3877 44.61 86.3877 44.291C86.3877 44.168 86.3262 44.0518 86.2031 43.9424C86.0846 43.833 85.679 43.6439 84.9863 43.375C84.2936 43.1061 83.8197 42.8099 83.5645 42.4863C83.3092 42.1628 83.1816 41.8027 83.1816 41.4062C83.1816 40.8184 83.4255 40.3398 83.9131 39.9707C84.4053 39.6016 85.0524 39.417 85.8545 39.417C86.6247 39.417 87.3197 39.5765 87.9395 39.8955ZM91.5352 36.4502V40.4971H91.5625C92.1276 39.777 92.8089 39.417 93.6064 39.417C94.2946 39.417 94.8597 39.6357 95.3018 40.0732C95.7484 40.5062 95.9717 41.11 95.9717 41.8848V46H93.9414V42.3154C93.9414 41.3766 93.5928 40.9072 92.8955 40.9072C92.4352 40.9072 91.9818 41.2331 91.5352 41.8848V46H89.5049V36.4502H91.5352ZM99.6426 36.4502V39.9092C100.176 39.5811 100.729 39.417 101.304 39.417C102.233 39.417 102.99 39.7269 103.573 40.3467C104.161 40.9665 104.455 41.7686 104.455 42.7529C104.455 43.7419 104.173 44.5508 103.607 45.1797C103.047 45.8086 102.327 46.123 101.447 46.123C100.809 46.123 100.208 45.918 99.6426 45.5078V46H97.6123V36.4502H99.6426ZM99.6426 41.2285V44.2227C100.053 44.5872 100.454 44.7695 100.846 44.7695C101.329 44.7695 101.707 44.5895 101.98 44.2295C102.258 43.8649 102.397 43.3636 102.397 42.7256C102.397 42.1058 102.252 41.6273 101.96 41.29C101.673 40.9482 101.292 40.7773 100.818 40.7773C100.449 40.7773 100.057 40.9277 99.6426 41.2285ZM109.131 39.417C110.143 39.417 110.999 39.7132 111.701 40.3057C112.408 40.8981 112.761 41.723 112.761 42.7803C112.761 43.8421 112.403 44.6647 111.688 45.248C110.972 45.8314 110.12 46.123 109.131 46.123C108.06 46.123 107.183 45.8132 106.499 45.1934C105.82 44.569 105.48 43.7601 105.48 42.7666C105.48 41.7549 105.827 40.9437 106.52 40.333C107.217 39.7223 108.087 39.417 109.131 39.417ZM109.131 44.9199C110.102 44.9199 110.587 44.1885 110.587 42.7256C110.587 41.3265 110.102 40.627 109.131 40.627C108.666 40.627 108.301 40.8115 108.037 41.1807C107.777 41.5498 107.647 42.0785 107.647 42.7666C107.647 44.2021 108.142 44.9199 109.131 44.9199ZM120.718 44.4072V45.5352C120.043 45.9271 119.41 46.123 118.817 46.123C118.179 46.123 117.801 45.8815 117.683 45.3984C116.976 45.8815 116.268 46.123 115.557 46.123C115.055 46.123 114.629 45.9658 114.278 45.6514C113.927 45.3324 113.752 44.9632 113.752 44.5439C113.752 43.9834 113.932 43.5322 114.292 43.1904C114.657 42.8441 115.755 42.3997 117.587 41.8574C117.632 41.1374 117.259 40.7773 116.466 40.7773C115.604 40.7773 114.812 41.1374 114.087 41.8574V40.2031C114.935 39.679 115.867 39.417 116.883 39.417C118.706 39.417 119.617 40.071 119.617 41.3789V44.3184C119.617 44.6191 119.729 44.7695 119.952 44.7695C120.121 44.7695 120.376 44.6488 120.718 44.4072ZM117.587 44.4346V42.876C116.908 43.113 116.441 43.3271 116.186 43.5186C115.935 43.7054 115.81 43.9447 115.81 44.2363C115.81 44.4232 115.873 44.585 116.001 44.7217C116.129 44.8538 116.284 44.9199 116.466 44.9199C116.849 44.9199 117.222 44.7581 117.587 44.4346ZM123.65 39.5469V41.3926H123.678C124.266 40.0755 124.951 39.417 125.735 39.417C126.109 39.417 126.558 39.613 127.082 40.0049L126.521 41.8027C126.02 41.4837 125.619 41.3242 125.318 41.3242C124.849 41.3242 124.452 41.6159 124.129 42.1992C123.81 42.778 123.65 43.1152 123.65 43.2109V46H121.62V39.5469H123.65ZM134.116 36.4502V46H132.086V45.4805C131.566 45.9089 130.969 46.123 130.295 46.123C129.434 46.123 128.714 45.804 128.135 45.166C127.561 44.528 127.273 43.7282 127.273 42.7666C127.273 41.7822 127.565 40.9779 128.148 40.3535C128.736 39.7292 129.488 39.417 130.404 39.417C130.974 39.417 131.535 39.5537 132.086 39.8271V36.4502H134.116ZM132.086 44.2363V41.1533C131.717 40.9027 131.339 40.7773 130.951 40.7773C130.441 40.7773 130.042 40.9551 129.755 41.3105C129.472 41.666 129.331 42.165 129.331 42.8076C129.331 43.4001 129.472 43.8763 129.755 44.2363C130.037 44.5918 130.413 44.7695 130.883 44.7695C131.298 44.7695 131.699 44.5918 132.086 44.2363Z" fill="#737496"/>
</g>
<defs>
<filter id="filter0_d_86_235" x="0" y="0" width="188" height="81" filterUnits="userSpaceOnUse" color-interpolation-filters="sRGB">
<feFlood flood-opacity="0" result="BackgroundImageFix"/>
<feColorMatrix in="SourceAlpha" type="matrix" values="0 0 0 0 0 0 0 0 0 0 0 0 0 0 0 0 0 0 127 0" result="hardAlpha"/>
<feOffset dx="-1" dy="-1"/>
<feGaussianBlur stdDeviation="2"/>
<feComposite in2="hardAlpha" operator="out"/>
<feColorMatrix type="matrix" values="0 0 0 0 1 0 0 0 0 1 0 0 0 0 1 0 0 0 0.25 0"/>
<feBlend mode="normal" in2="BackgroundImageFix" result="effect1_dropShadow_86_235"/>
<feBlend mode="normal" in="SourceGraphic" in2="effect1_dropShadow_86_235" result="shape"/>
</filter>
</defs>
</svg>
