<?xml version="1.0" encoding="UTF-8" standalone="no"?>
<!-- Created with Inkscape (http://www.inkscape.org/) -->

<svg
   width="486.44992"
   height="486.44998"
   viewBox="0 0 128.70653 128.70657"
   version="1.1"
   id="svg5"
   inkscape:version="1.1 (c68e22c387, 2021-05-23)"
   sodipodi:docname="GolrendLoadingLogo.svg"
   inkscape:export-filename="D:\YagnaInstaller\1024x1024.png"
   inkscape:export-xdpi="202.08452"
   inkscape:export-ydpi="202.08452"
   xmlns:inkscape="http://www.inkscape.org/namespaces/inkscape"
   xmlns:sodipodi="http://sodipodi.sourceforge.net/DTD/sodipodi-0.dtd"
   xmlns="http://www.w3.org/2000/svg"
   xmlns:svg="http://www.w3.org/2000/svg">
  <sodipodi:namedview
     id="namedview7"
     pagecolor="#505050"
     bordercolor="#eeeeee"
     borderopacity="1"
     inkscape:pageshadow="0"
     inkscape:pageopacity="0"
     inkscape:pagecheckerboard="0"
     inkscape:document-units="mm"
     showgrid="false"
     units="px"
     showguides="true"
     inkscape:guide-bbox="true"
     inkscape:zoom="0.70710678"
     inkscape:cx="112.42998"
     inkscape:cy="300.52038"
     inkscape:window-width="1920"
     inkscape:window-height="1017"
     inkscape:window-x="-8"
     inkscape:window-y="-8"
     inkscape:window-maximized="1"
     inkscape:current-layer="layer1">
    <sodipodi:guide
       position="-67.991712,153.70346"
       orientation="0,1000"
       id="guide1213" />
    <sodipodi:guide
       position="196.59163,153.70346"
       orientation="675,0"
       id="guide1215" />
    <sodipodi:guide
       position="196.59163,-24.890288"
       orientation="0,-1000"
       id="guide1217" />
    <sodipodi:guide
       position="-67.991712,-24.890288"
       orientation="-675,0"
       id="guide1219" />
    <sodipodi:guide
       position="-67.991712,64.406589"
       orientation="0,500"
       id="guide1398" />
    <sodipodi:guide
       position="64.299954,64.406589"
       orientation="337.5,0"
       id="guide1400" />
    <sodipodi:guide
       position="64.299954,-24.890288"
       orientation="0,-500"
       id="guide1402" />
    <sodipodi:guide
       position="-67.991712,-24.890288"
       orientation="-337.5,0"
       id="guide1404" />
  </sodipodi:namedview>
  <defs
     id="defs2" />
  <g
     inkscape:label="Layer 1"
     inkscape:groupmode="layer"
     id="layer1"
     transform="translate(-67.991707,-24.996903)">
    <g
       id="g3864">
      <path
         style="fill:#0000ff;stroke-width:0.197"
         d="m 132.29167,40.947906 a 20.704326,20.704326 0 0 0 -20.70468,20.70416 20.704326,20.704326 0 0 0 16.86719,20.331061 v 12.866915 c -9.6011,1.799471 -16.86719,10.224178 -16.86719,20.347598 0,11.43469 9.26999,20.70416 20.70468,20.70416 11.43469,0 20.70416,-9.26947 20.70416,-20.70416 0,-10.12324 -7.26581,-18.547929 -16.86667,-20.347598 V 81.983127 a 20.704326,20.704326 0 0 0 16.86667,-20.331061 20.704326,20.704326 0 0 0 -20.70416,-20.70416 z"
         id="path846" />
      <g
         style="clip-rule:evenodd;fill:#0000ff;fill-rule:evenodd;stroke-linejoin:round;stroke-miterlimit:2"
         id="g1541"
         transform="matrix(-0.09373144,0,0,0.10198784,148.11653,130.5664)">
        <g
           transform="translate(-7.7861)"
           id="g1515"
           style="fill:#0000ff">
          <g
             id="vlpa"
             transform="matrix(1,0,0,0.8352,7.7861,-42.991)"
             style="fill:#0000ff">
            <g
               transform="matrix(4.1667,0,0,4.9888,-694.35501,1739.4571)"
               id="g1512"
               style="fill:#0000ff">
              <g
                 transform="matrix(5.1923,0,0,5.1923,-1094.3968,1221.8162)"
                 id="g1486"
                 style="fill:#0000ff">
                <path
                   d="m 243.13,-333.72 c 0.106,-1.891 1.032,-3.557 2.429,-4.738 1.37,-1.16 3.214,-1.869 5.226,-1.869 2.01,0 3.854,0.709 5.225,1.869 1.396,1.181 2.322,2.847 2.429,4.736 0.106,1.943 -0.675,3.748 -2.045,5.086 -1.397,1.361 -3.384,2.215 -5.609,2.215 -2.225,0 -4.216,-0.854 -5.612,-2.215 -1.371,-1.338 -2.15,-3.143 -2.043,-5.084 z"
                   style="fill:#0000ff;fill-rule:nonzero"
                   id="path1484" />
              </g>
              <g
                 transform="matrix(2.6642,0,0,2.6642,-460.41678,382.0128)"
                 id="g1506"
                 style="fill:#0000ff">
                <path
                   d="m 243.13,-333.72 c 0.106,-1.891 1.032,-3.557 2.429,-4.738 1.37,-1.16 3.214,-1.869 5.226,-1.869 2.01,0 3.854,0.709 5.225,1.869 1.396,1.181 2.322,2.847 2.429,4.736 0.106,1.943 -0.675,3.748 -2.045,5.086 -1.397,1.361 -3.384,2.215 -5.609,2.215 -2.225,0 -4.216,-0.854 -5.612,-2.215 -1.371,-1.338 -2.15,-3.143 -2.043,-5.084 z"
                   style="fill:#0000ff;fill-rule:nonzero"
                   id="path1488" />
                <path
                   d="m 230.94,-329.89 c 0.013,0.74 0.249,2.178 0.603,3.301 0.744,2.377 2.006,4.576 3.762,6.514 1.802,1.992 4.021,3.592 6.584,4.728 2.694,1.193 5.613,1.801 8.645,1.796 3.027,-0.004 5.946,-0.624 8.64,-1.826 2.563,-1.147 4.78,-2.754 6.579,-4.747 1.755,-1.946 3.015,-4.149 3.761,-6.526 0.375,-1.201 0.612,-2.42 0.707,-3.643 0.093,-1.205 0.054,-2.412 -0.117,-3.618 -0.334,-2.35 -1.147,-4.555 -2.399,-6.565 -1.145,-1.847 -2.621,-3.464 -4.376,-4.825 l 0.004,-0.003 -17.711,-13.599 c -0.016,-0.012 -0.029,-0.025 -0.046,-0.036 -1.162,-0.892 -3.116,-0.889 -4.394,0.005 -1.292,0.904 -1.44,2.399 -0.29,3.342 l -0.005,0.005 7.387,6.007 -22.515,0.024 h -0.03 c -1.861,0.002 -3.65,1.223 -4.004,2.766 -0.364,1.572 0.9,2.876 2.835,2.883 l -0.003,0.007 11.412,-0.022 -20.364,15.631 c -0.026,0.019 -0.054,0.039 -0.078,0.058 -1.921,1.471 -2.542,3.917 -1.332,5.465 1.228,1.574 3.839,1.577 5.78,0.009 l 11.114,-9.096 c 0,0 -0.162,1.228 -0.149,1.965 z m 28.559,4.112 c -2.29,2.333 -5.496,3.656 -8.965,3.663 -3.474,0.006 -6.68,-1.305 -8.97,-3.634 -1.119,-1.135 -1.941,-2.441 -2.448,-3.832 -0.497,-1.367 -0.69,-2.818 -0.562,-4.282 0.121,-1.431 0.547,-2.796 1.227,-4.031 0.668,-1.214 1.588,-2.311 2.724,-3.239 2.226,-1.814 5.06,-2.796 8.024,-2.8 2.967,-0.004 5.799,0.969 8.027,2.777 1.134,0.924 2.053,2.017 2.721,3.229 0.683,1.234 1.106,2.594 1.232,4.029 0.126,1.462 -0.067,2.911 -0.564,4.279 -0.508,1.395 -1.327,2.701 -2.446,3.841 z"
                   style="fill:#0000ff;fill-rule:nonzero"
                   id="path1490" />
              </g>
            </g>
          </g>
        </g>
      </g>
      <g
         style="clip-rule:evenodd;fill:#0000ff;fill-rule:evenodd;stroke-linejoin:round;stroke-miterlimit:2"
         id="g2534"
         transform="matrix(0.09373144,0,0,-0.10198784,116.42371,46.10641)">
        <g
           transform="translate(-7.7861)"
           id="g2532"
           style="fill:#0000ff">
          <g
             id="g2530"
             transform="matrix(1,0,0,0.8352,7.7861,-42.991)"
             style="fill:#0000ff">
            <g
               transform="matrix(4.1667,0,0,4.9888,-694.35501,1739.4571)"
               id="g2528"
               style="fill:#0000ff">
              <g
                 transform="matrix(5.1923,0,0,5.1923,-1094.3968,1221.8162)"
                 id="g2520"
                 style="fill:#0000ff">
                <path
                   d="m 243.13,-333.72 c 0.106,-1.891 1.032,-3.557 2.429,-4.738 1.37,-1.16 3.214,-1.869 5.226,-1.869 2.01,0 3.854,0.709 5.225,1.869 1.396,1.181 2.322,2.847 2.429,4.736 0.106,1.943 -0.675,3.748 -2.045,5.086 -1.397,1.361 -3.384,2.215 -5.609,2.215 -2.225,0 -4.216,-0.854 -5.612,-2.215 -1.371,-1.338 -2.15,-3.143 -2.043,-5.084 z"
                   style="fill:#0000ff;fill-rule:nonzero"
                   id="path2518" />
              </g>
              <g
                 transform="matrix(2.6642,0,0,2.6642,-460.41678,382.0128)"
                 id="g2526"
                 style="fill:#0000ff">
                <path
                   d="m 243.13,-333.72 c 0.106,-1.891 1.032,-3.557 2.429,-4.738 1.37,-1.16 3.214,-1.869 5.226,-1.869 2.01,0 3.854,0.709 5.225,1.869 1.396,1.181 2.322,2.847 2.429,4.736 0.106,1.943 -0.675,3.748 -2.045,5.086 -1.397,1.361 -3.384,2.215 -5.609,2.215 -2.225,0 -4.216,-0.854 -5.612,-2.215 -1.371,-1.338 -2.15,-3.143 -2.043,-5.084 z"
                   style="fill:#0000ff;fill-rule:nonzero"
                   id="path2522" />
                <path
                   d="m 230.94,-329.89 c 0.013,0.74 0.249,2.178 0.603,3.301 0.744,2.377 2.006,4.576 3.762,6.514 1.802,1.992 4.021,3.592 6.584,4.728 2.694,1.193 5.613,1.801 8.645,1.796 3.027,-0.004 5.946,-0.624 8.64,-1.826 2.563,-1.147 4.78,-2.754 6.579,-4.747 1.755,-1.946 3.015,-4.149 3.761,-6.526 0.375,-1.201 0.612,-2.42 0.707,-3.643 0.093,-1.205 0.054,-2.412 -0.117,-3.618 -0.334,-2.35 -1.147,-4.555 -2.399,-6.565 -1.145,-1.847 -2.621,-3.464 -4.376,-4.825 l 0.004,-0.003 -17.711,-13.599 c -0.016,-0.012 -0.029,-0.025 -0.046,-0.036 -1.162,-0.892 -3.116,-0.889 -4.394,0.005 -1.292,0.904 -1.44,2.399 -0.29,3.342 l -0.005,0.005 7.387,6.007 -22.515,0.024 h -0.03 c -1.861,0.002 -3.65,1.223 -4.004,2.766 -0.364,1.572 0.9,2.876 2.835,2.883 l -0.003,0.007 11.412,-0.022 -20.364,15.631 c -0.026,0.019 -0.054,0.039 -0.078,0.058 -1.921,1.471 -2.542,3.917 -1.332,5.465 1.228,1.574 3.839,1.577 5.78,0.009 l 11.114,-9.096 c 0,0 -0.162,1.228 -0.149,1.965 z m 28.559,4.112 c -2.29,2.333 -5.496,3.656 -8.965,3.663 -3.474,0.006 -6.68,-1.305 -8.97,-3.634 -1.119,-1.135 -1.941,-2.441 -2.448,-3.832 -0.497,-1.367 -0.69,-2.818 -0.562,-4.282 0.121,-1.431 0.547,-2.796 1.227,-4.031 0.668,-1.214 1.588,-2.311 2.724,-3.239 2.226,-1.814 5.06,-2.796 8.024,-2.8 2.967,-0.004 5.799,0.969 8.027,2.777 1.134,0.924 2.053,2.017 2.721,3.229 0.683,1.234 1.106,2.594 1.232,4.029 0.126,1.462 -0.067,2.911 -0.564,4.279 -0.508,1.395 -1.327,2.701 -2.446,3.841 z"
                   style="fill:#0000ff;fill-rule:nonzero"
                   id="path2524" />
              </g>
            </g>
          </g>
        </g>
      </g>
      <path
         style="fill:#ffffff;stroke-width:0.197"
         d="m 132.29167,100.11587 a 15.082031,15.082031 0 0 1 15.08177,15.08177 15.082031,15.082031 0 0 1 -15.08177,15.08229 15.082031,15.082031 0 0 1 -15.08228,-15.08229 15.082031,15.082031 0 0 1 15.08228,-15.08177 z"
         id="path2723" />
      <path
         style="fill:#ffffff;fill-opacity:1;stroke-width:0.197"
         d="M 132.29167,46.569786 A 15.082031,15.082031 0 0 1 147.37344,61.65207 15.082031,15.082031 0 0 1 132.29167,76.733836 15.082031,15.082031 0 0 1 117.20939,61.65207 15.082031,15.082031 0 0 1 132.29167,46.569786 Z"
         id="path2721" />
    </g>
  </g>
</svg>
